<mxfile host="www.draw.io" modified="2019-11-20T15:42:53.822Z" agent="Mozilla/5.0 (Windows NT 10.0; Win64; x64) AppleWebKit/537.36 (KHTML, like Gecko) Chrome/78.0.3904.108 Safari/537.36" etag="S9UzNhum3EGlMw5zVUR5" version="12.2.7" type="github" pages="1">
  <diagram id="YE4dT-BSyn-995C7km2M" name="Page-1">
    <mxGraphModel dx="1182" dy="732" grid="1" gridSize="10" guides="1" tooltips="1" connect="1" arrows="1" fold="1" page="1" pageScale="1" pageWidth="827" pageHeight="1169" math="0" shadow="0">
      <root>
        <mxCell id="0"/>
        <mxCell id="1" parent="0"/>
        <mxCell id="njpOKajNsTapTTinLuSs-6" style="edgeStyle=orthogonalEdgeStyle;rounded=0;orthogonalLoop=1;jettySize=auto;html=1;entryX=0.5;entryY=0;entryDx=0;entryDy=0;strokeWidth=5;strokeColor=#66B2FF;" parent="1" source="njpOKajNsTapTTinLuSs-1" target="njpOKajNsTapTTinLuSs-3" edge="1">
          <mxGeometry relative="1" as="geometry"/>
        </mxCell>
        <mxCell id="njpOKajNsTapTTinLuSs-7" style="edgeStyle=orthogonalEdgeStyle;rounded=0;orthogonalLoop=1;jettySize=auto;html=1;entryX=0.5;entryY=0;entryDx=0;entryDy=0;strokeColor=#66B2FF;strokeWidth=5;" parent="1" source="njpOKajNsTapTTinLuSs-1" target="njpOKajNsTapTTinLuSs-2" edge="1">
          <mxGeometry relative="1" as="geometry"/>
        </mxCell>
        <mxCell id="njpOKajNsTapTTinLuSs-8" style="edgeStyle=orthogonalEdgeStyle;rounded=0;orthogonalLoop=1;jettySize=auto;html=1;entryX=0.5;entryY=0;entryDx=0;entryDy=0;strokeColor=#66B2FF;strokeWidth=5;" parent="1" source="njpOKajNsTapTTinLuSs-1" target="njpOKajNsTapTTinLuSs-4" edge="1">
          <mxGeometry relative="1" as="geometry"/>
        </mxCell>
        <mxCell id="njpOKajNsTapTTinLuSs-1" value="&lt;font style=&quot;font-size: 17px&quot; face=&quot;Times New Roman&quot;&gt;Машинное обучение&lt;/font&gt;" style="rounded=0;whiteSpace=wrap;html=1;strokeColor=#66B2FF;strokeWidth=5;" parent="1" vertex="1">
          <mxGeometry x="330" y="20" width="166" height="70" as="geometry"/>
        </mxCell>
        <mxCell id="njpOKajNsTapTTinLuSs-12" value="" style="edgeStyle=orthogonalEdgeStyle;rounded=0;orthogonalLoop=1;jettySize=auto;html=1;strokeColor=#66B2FF;strokeWidth=5;" parent="1" source="njpOKajNsTapTTinLuSs-2" target="njpOKajNsTapTTinLuSs-9" edge="1">
          <mxGeometry relative="1" as="geometry"/>
        </mxCell>
        <mxCell id="njpOKajNsTapTTinLuSs-2" value="&lt;font style=&quot;font-size: 17px&quot; face=&quot;Times New Roman&quot;&gt;Обучение с учителем&lt;/font&gt;" style="rounded=0;whiteSpace=wrap;html=1;strokeColor=#66B2FF;strokeWidth=5;" parent="1" vertex="1">
          <mxGeometry x="60" y="140" width="150" height="80" as="geometry"/>
        </mxCell>
        <mxCell id="njpOKajNsTapTTinLuSs-13" value="" style="edgeStyle=orthogonalEdgeStyle;rounded=0;orthogonalLoop=1;jettySize=auto;html=1;strokeColor=#66B2FF;strokeWidth=5;" parent="1" source="njpOKajNsTapTTinLuSs-3" target="njpOKajNsTapTTinLuSs-10" edge="1">
          <mxGeometry relative="1" as="geometry"/>
        </mxCell>
        <mxCell id="njpOKajNsTapTTinLuSs-3" value="&lt;font style=&quot;font-size: 17px&quot; face=&quot;Times New Roman&quot;&gt;Обучение без учителя&lt;/font&gt;" style="rounded=0;whiteSpace=wrap;html=1;strokeColor=#66B2FF;strokeWidth=5;" parent="1" vertex="1">
          <mxGeometry x="334.5" y="140" width="157" height="80" as="geometry"/>
        </mxCell>
        <mxCell id="njpOKajNsTapTTinLuSs-14" value="" style="edgeStyle=orthogonalEdgeStyle;rounded=0;orthogonalLoop=1;jettySize=auto;html=1;strokeColor=#66B2FF;strokeWidth=5;" parent="1" source="njpOKajNsTapTTinLuSs-4" target="njpOKajNsTapTTinLuSs-11" edge="1">
          <mxGeometry relative="1" as="geometry"/>
        </mxCell>
        <mxCell id="njpOKajNsTapTTinLuSs-4" value="&lt;font style=&quot;font-size: 17px&quot; face=&quot;Times New Roman&quot;&gt;Обучение с подкреплением&lt;/font&gt;" style="rounded=0;whiteSpace=wrap;html=1;strokeColor=#33FF33;strokeWidth=5;" parent="1" vertex="1">
          <mxGeometry x="606.5" y="140" width="150" height="80" as="geometry"/>
        </mxCell>
        <mxCell id="njpOKajNsTapTTinLuSs-9" value="&lt;blockquote style=&quot;margin: 0 0 0 40px ; border: none ; padding: 0px&quot;&gt;&lt;/blockquote&gt;&lt;span style=&quot;font-size: 17px ; font-family: &amp;#34;times new roman&amp;#34;&quot;&gt;Обязательна обучающая выборка&lt;/span&gt;&lt;font face=&quot;Times New Roman&quot;&gt;&lt;span style=&quot;font-size: 17px&quot;&gt;&lt;br&gt;&lt;/span&gt;&lt;/font&gt;" style="whiteSpace=wrap;html=1;aspect=fixed;strokeColor=#66B2FF;strokeWidth=5;align=center;" parent="1" vertex="1">
          <mxGeometry x="40" y="270" width="190" height="190" as="geometry"/>
        </mxCell>
        <mxCell id="njpOKajNsTapTTinLuSs-10" value="&lt;font face=&quot;times new roman, serif&quot;&gt;&lt;font style=&quot;font-size: 17px&quot;&gt;Решает задачи кластеризации&lt;/font&gt;&lt;br&gt;&lt;br&gt;&lt;br&gt;&lt;/font&gt;" style="whiteSpace=wrap;html=1;aspect=fixed;strokeColor=#66B2FF;strokeWidth=5;" parent="1" vertex="1">
          <mxGeometry x="318" y="270" width="190" height="190" as="geometry"/>
        </mxCell>
        <mxCell id="njpOKajNsTapTTinLuSs-11" value="&lt;span style=&quot;font-family: &amp;#34;times new roman&amp;#34; , serif ; font-size: 17px&quot;&gt;Не требуется обучающая выборка&lt;br&gt;&lt;br&gt;Самообучающийся алгоритм&lt;br&gt;&lt;/span&gt;&lt;br&gt;&lt;span style=&quot;font-family: &amp;#34;times new roman&amp;#34; , serif ; font-size: 17px&quot;&gt;Обучается за вознаграждение&lt;/span&gt;&lt;br&gt;&lt;div&gt;&lt;br&gt;&lt;/div&gt;&lt;font color=&quot;#66cc00&quot;&gt;&lt;span style=&quot;font-size: medium ; white-space: normal&quot;&gt;&lt;/span&gt;&lt;/font&gt;" style="rounded=0;whiteSpace=wrap;html=1;strokeColor=#33FF33;strokeWidth=5;align=center;" parent="1" vertex="1">
          <mxGeometry x="596" y="270" width="171" height="190" as="geometry"/>
        </mxCell>
      </root>
    </mxGraphModel>
  </diagram>
</mxfile>
